<svg width="14" height="14" viewBox="0 0 14 14" fill="none" xmlns="http://www.w3.org/2000/svg">
<path d="M7.50556 4.00823C7.50556 3.72902 7.27921 3.50267 7 3.50267C6.72079 3.50267 6.49444 3.72902 6.49444 4.00823V7.50823C6.49444 7.78744 6.72079 8.01378 7 8.01378H10.1111C10.3903 8.01378 10.6167 7.78744 10.6167 7.50823C10.6167 7.22902 10.3903 7.00267 10.1111 7.00267H7.50556V4.00823Z" fill="black"/>
<path fill-rule="evenodd" clip-rule="evenodd" d="M0 7C0 3.13401 3.13401 0 7 0C10.866 0 14 3.13401 14 7C14 10.866 10.866 14 7 14C3.13401 14 0 10.866 0 7ZM7 1.01111C3.69243 1.01111 1.01111 3.69243 1.01111 7C1.01111 10.3076 3.69243 12.9889 7 12.9889C10.3076 12.9889 12.9889 10.3076 12.9889 7C12.9889 3.69243 10.3076 1.01111 7 1.01111Z" fill="black"/>
</svg>
