<svg width="12" height="14" viewBox="0 0 12 14" fill="none" xmlns="http://www.w3.org/2000/svg">
<path fill-rule="evenodd" clip-rule="evenodd" d="M2.60017 3.86402C2.36952 1.80446 3.95721 0 6 0C8.04279 0 9.63048 1.80446 9.39983 3.86402L9.19898 5.65754C9.01409 7.30844 7.63746 8.55556 6 8.55556C4.36254 8.55556 2.98591 7.30844 2.80102 5.65754L2.60017 3.86402ZM8.40974 3.74986L8.20888 5.54338C8.08122 6.68332 7.13066 7.54445 6 7.54445C4.86934 7.54445 3.91878 6.68332 3.79112 5.54338L3.59026 3.74985C3.42678 2.29008 4.55211 1.01111 6 1.01111C7.44789 1.01111 8.57322 2.29008 8.40974 3.74986Z" fill="black"/>
<path fill-rule="evenodd" clip-rule="evenodd" d="M0.0896005 12.9877C0.557212 10.8525 2.42358 9.33333 4.57916 9.33333H7.42084C9.57642 9.33333 11.4428 10.8525 11.9104 12.9877L11.987 13.3374C12.0615 13.6775 11.8065 14 11.4632 14H0.536777C0.193514 14 -0.0614693 13.6775 0.0129949 13.3374L0.0896005 12.9877ZM7.42084 10.3444C9.03502 10.3444 10.4422 11.4319 10.883 12.9889H1.11704C1.55785 11.4319 2.96499 10.3444 4.57916 10.3444H7.42084Z" fill="black"/>
</svg>
