<svg width="18" height="18" viewBox="0 0 18 18" fill="none" xmlns="http://www.w3.org/2000/svg">
<path d="M4.65 8.35C4.29101 8.35 4 8.64102 4 9C4 9.35899 4.29101 9.65 4.65 9.65C9.82781 9.65 7.76804 9.65 13.35 9.65C13.709 9.65 14 9.35899 14 9C14 8.64102 13.709 8.35 13.35 8.35C8.17223 8.35 10.232 8.35 4.65 8.35Z" fill="#0062FF"/>
<path fill-rule="evenodd" clip-rule="evenodd" d="M9 0C4.02944 0 0 4.02944 0 9C0 13.9706 4.02944 18 9 18C13.9706 18 18 13.9706 18 9C18 4.02944 13.9706 0 9 0ZM1.3 9C1.3 4.74741 4.74741 1.3 9 1.3C13.2526 1.3 16.7 4.74741 16.7 9C16.7 13.2526 13.2526 16.7 9 16.7C4.74741 16.7 1.3 13.2526 1.3 9Z" fill="#0062FF"/>
</svg>
