<svg width="206" height="90" viewBox="0 0 206 90" fill="none" xmlns="http://www.w3.org/2000/svg">
<path d="M0 3C0 1.34315 1.34315 0 3 0H203C204.657 0 206 1.34315 206 3V90H0V3Z" fill="white"/>
<path d="M152.332 62.2813H158.214C160.442 62.2813 161.792 61.7266 162.738 60.4844C163.211 59.8594 163.89 58.7578 163.89 56.6797C163.89 54.6016 163.219 53.1484 161.861 52.1094C161.052 51.4844 159.969 51.1406 158.146 51.1406H152.332V62.2813ZM144.558 68.9922V29H169.963L167.735 35.7109H152.332V44.5703H158.619C163.684 44.5703 166.324 45.8125 168.147 47.4062C169.566 48.6484 172 51.4219 172 56.8828C172 62.2813 169.498 65.2578 167.407 66.7813C164.974 68.5078 162.41 68.9922 157.207 68.9922H144.558ZM122.061 68.9922V35.7109H110.777V29H142.132L139.905 35.7109H129.896V68.9922H122.061ZM90.774 44.9844H95.1683C96.5186 44.9844 97.1976 44.9844 97.8689 44.7734C99.6923 44.2188 100.844 42.5625 100.844 40.2734C100.844 37.5781 99.6236 36.3984 97.8689 35.8437C97.1289 35.6406 96.3813 35.5703 94.8936 35.5703H90.774V44.9844ZM90.8426 51.9062V62.4219H96.2516C97.8766 62.4219 99.3566 62.2813 100.44 61.2422C101.523 60.2031 101.996 58.8906 101.996 57.1562C101.996 55.8437 101.661 54.5938 100.982 53.6953C99.8296 52.2422 98.4106 51.8984 95.9846 51.8984H90.8426V51.9062ZM103.339 47.6797V47.8203C104.827 48.375 106.246 49.3437 106.986 49.9687C109.282 51.9062 110.297 54.4688 110.297 57.7891C110.297 63.2578 107.459 67.2031 102.797 68.4453C101.378 68.8594 99.8906 69 97.1213 69H83V29.0078H95.5039C98.0673 29.0078 99.8296 29.1484 101.386 29.5625C105.91 30.8047 108.885 33.9922 108.885 39.0391C108.885 41.7344 107.939 44.0234 106.383 45.5469C105.704 46.2266 104.758 47.0625 103.339 47.6797Z" fill="#9A9EA5"/>
<path d="M76 20H43.4057L41.0505 26.748H73.6524L76 20Z" fill="#E5E7EB"/>
<path d="M72.4709 30.126H39.8767L37.5215 36.8741H70.1233L72.4709 30.126Z" fill="#E5E7EB"/>
<path d="M68.9495 40.252H36.3552L34 47H66.5943L68.9495 40.252Z" fill="#E5E7EB"/>
</svg>
