<svg width="18" height="19" viewBox="0 0 18 19" fill="none" xmlns="http://www.w3.org/2000/svg">
<path fill-rule="evenodd" clip-rule="evenodd" d="M9.65 3.0855L9.65 0.650001C9.65 0.291016 9.35899 0 9 0C8.64102 0 8.35 0.291016 8.35 0.650001V3.0855C7.00564 3.38246 6 4.58124 6 6.01489C6 7.67175 7.34315 9.01489 9 9.01489C10.6569 9.01489 12 7.67175 12 6.01489C12 4.58124 10.9944 3.38246 9.65 3.0855ZM9 4.31489C9.93888 4.31489 10.7 5.07601 10.7 6.01489C10.7 6.95378 9.93888 7.71489 9 7.71489C8.06112 7.71489 7.3 6.95378 7.3 6.01489C7.3 5.07601 8.06112 4.31489 9 4.31489Z" fill="black"/>
<path d="M9.65 17.3769C9.65 17.7359 9.35899 18.0269 9 18.0269C8.64102 18.0269 8.35 17.7359 8.35 17.3769V11.512C8.35 11.153 8.64102 10.862 9 10.862C9.35899 10.862 9.65 11.153 9.65 11.512V17.3769Z" fill="black"/>
<path d="M3 7.18696C3.35898 7.18696 3.65 6.89594 3.65 6.53696L3.65 0.650018C3.65 0.291033 3.35899 1.71818e-05 3 1.71661e-05C2.64102 1.71504e-05 2.35 0.291033 2.35 0.650018V6.53696C2.35 6.89594 2.64101 7.18696 3 7.18696Z" fill="black"/>
<path d="M15.65 0.65003C15.65 0.291045 15.359 3.05176e-05 15 3.05176e-05C14.641 3.05176e-05 14.35 0.291045 14.35 0.65003V6.53984C14.35 6.89883 14.641 7.18984 15 7.18984C15.359 7.18984 15.65 6.89883 15.65 6.53984V0.65003Z" fill="black"/>
<path fill-rule="evenodd" clip-rule="evenodd" d="M15.65 14.9443C16.9944 14.6473 18 13.4485 18 12.0149C18 10.358 16.6569 9.01489 15 9.01489C13.3431 9.01489 12 10.358 12 12.0149C12 13.4485 13.0056 14.6473 14.35 14.9443V17.3769C14.35 17.7359 14.641 18.0269 15 18.0269C15.359 18.0269 15.65 17.7359 15.65 17.3769V14.9443ZM16.7 12.0149C16.7 12.9538 15.9389 13.7149 15 13.7149C14.0611 13.7149 13.3 12.9538 13.3 12.0149C13.3 11.076 14.0611 10.3149 15 10.3149C15.9389 10.3149 16.7 11.076 16.7 12.0149Z" fill="black"/>
<path fill-rule="evenodd" clip-rule="evenodd" d="M3 18.0269C3.35898 18.0269 3.65 17.7359 3.65 17.3769V14.9414C4.99436 14.6445 6 13.4457 6 12.012C6 10.3552 4.65685 9.01202 3 9.01202C1.34315 9.01202 0 10.3552 0 12.012C0 13.4457 1.00564 14.6445 2.35 14.9414V17.3769C2.35 17.7359 2.64101 18.0269 3 18.0269ZM4.7 12.012C4.7 11.0731 3.93888 10.312 3 10.312C2.06112 10.312 1.3 11.0731 1.3 12.012C1.3 12.9509 2.06112 13.712 3 13.712C3.93888 13.712 4.7 12.9509 4.7 12.012Z" fill="black"/>
</svg>
