<svg width="16" height="18" viewBox="0 0 16 18" fill="none" xmlns="http://www.w3.org/2000/svg">
<path fill-rule="evenodd" clip-rule="evenodd" d="M3.56455 4.96802C3.26364 2.32002 5.33495 0 8 0C10.665 0 12.7364 2.32002 12.4355 4.96803L12.1734 7.27398C11.9322 9.39657 10.1362 11 8 11C5.86376 11 4.06779 9.39656 3.82659 7.27398L3.56455 4.96802Z" fill="#7B7E86"/>
<path fill-rule="evenodd" clip-rule="evenodd" d="M0.289242 16.6984C0.899292 13.9532 3.33417 12 6.14636 12H9.85364C12.6658 12 15.1007 13.9532 15.7108 16.6984L15.8107 17.1481C15.9078 17.5853 15.5752 18 15.1274 18H0.872632C0.424809 18 0.0921547 17.5853 0.189301 17.1481L0.289242 16.6984Z" fill="#7B7E86"/>
</svg>
