<svg width="79" height="28" viewBox="0 0 79 28" fill="none" xmlns="http://www.w3.org/2000/svg">
<path d="M67.2398 24.2376H70.5872C71.855 24.2376 72.6235 23.927 73.1618 23.2313C73.431 22.8813 73.8174 22.2645 73.8174 21.1007C73.8174 19.937 73.4354 19.1232 72.6625 18.5413C72.2023 18.1913 71.5858 17.9988 70.5481 17.9988H67.2398V24.2376ZM62.8156 27.9957V5.6001H77.2734L76.0056 9.35822H67.2398V14.3195H70.8173C73.7002 14.3195 75.2024 15.0151 76.2401 15.9076C77.0476 16.6032 78.4327 18.1563 78.4327 21.2145C78.4327 24.2376 77.0086 25.9045 75.819 26.7576C74.434 27.7245 72.9751 27.9957 70.0141 27.9957H62.8156ZM50.0119 27.9957V9.35822H43.5906V5.6001H61.4349L60.1671 9.35822H54.4709V27.9957H50.0119ZM32.2067 14.5513H34.7075C35.4759 14.5513 35.8624 14.5513 36.2444 14.4332C37.2821 14.1226 37.9377 13.1951 37.9377 11.9132C37.9377 10.4038 37.243 9.74322 36.2444 9.43259C35.8233 9.31884 35.3978 9.27947 34.5512 9.27947H32.2067V14.5513ZM32.2457 18.4276V24.3163H35.324C36.2488 24.3163 37.0911 24.2376 37.7076 23.6557C38.3241 23.0738 38.5933 22.3388 38.5933 21.3676C38.5933 20.6326 38.4023 19.9326 38.0158 19.4295C37.3602 18.6157 36.5527 18.4232 35.172 18.4232H32.2457V18.4276ZM39.3574 16.0607V16.1395C40.2041 16.4501 41.0116 16.9926 41.4328 17.3426C42.7396 18.4276 43.317 19.8626 43.317 21.722C43.317 24.7845 41.7019 26.9938 39.0492 27.6895C38.2416 27.9213 37.395 28.0001 35.8189 28.0001H27.7825V5.60447H34.8985C36.3573 5.60447 37.3602 5.68322 38.246 5.9151C40.8206 6.61072 42.5138 8.39572 42.5138 11.222C42.5138 12.7313 41.9755 14.0132 41.0898 14.8663C40.7033 15.247 40.165 15.7151 39.3574 16.0607Z" fill="#002882"/>
<path d="M24.0791 0H5.39241L4.04214 3.73187H22.7331L24.0791 0Z" fill="#00AAFF"/>
<path d="M22.0558 5.60002H3.36917L2.0189 9.33189H20.7099L22.0558 5.60002Z" fill="#00AAFF"/>
<path d="M20.0369 11.2H1.35027L0 14.9318H18.6866L20.0369 11.2Z" fill="#00AAFF"/>
</svg>
