<svg width="18" height="18" viewBox="0 0 18 18" fill="none" xmlns="http://www.w3.org/2000/svg">
<path fill-rule="evenodd" clip-rule="evenodd" d="M1 8C1 4.13 4.13 1 8 1C11.87 1 15 4.13 15 8C15 9.76212 14.3511 11.3708 13.2789 12.6005L16.7802 16.111C17.0337 16.3652 17.0332 16.7767 16.779 17.0302C16.5248 17.2837 16.1133 17.2832 15.8598 17.029L12.3373 13.4973C11.1453 14.4386 9.639 15 8 15C4.13 15 1 11.87 1 8ZM13.7 8C13.7 4.86 11.14 2.3 8 2.3C4.86 2.3 2.3 4.86 2.3 8C2.3 11.14 4.86 13.7 8 13.7C11.14 13.7 13.7 11.14 13.7 8Z" fill="#0062FF" stroke="#0062FF" stroke-miterlimit="10" stroke-linecap="round"/>
</svg>
